<?xml version="1.0" standalone="no"?>
<!DOCTYPE svg PUBLIC "-//W3C//DTD SVG 20010904//EN"
 "http://www.w3.org/TR/2001/REC-SVG-20010904/DTD/svg10.dtd">
<svg version="1.0" xmlns="http://www.w3.org/2000/svg"
 width="1080.000000pt" height="840.000000pt" viewBox="0 0 1080.000000 840.000000"
 preserveAspectRatio="xMidYMid meet">

<g transform="translate(0.000000,840.000000) scale(0.100000,-0.100000)"
fill="#000000" stroke="none">
<path d="M4169 7650 c-300 -27 -569 -108 -751 -226 -72 -46 -163 -125 -179
-156 -20 -36 70 -316 160 -498 96 -196 210 -330 325 -384 52 -25 58 -25 84
-12 48 25 96 87 146 190 53 108 156 411 207 609 32 127 33 129 87 184 64 64
155 134 201 152 17 8 31 20 31 29 0 28 -51 103 -76 113 -28 10 -108 10 -235
-1z"/>
<path d="M6123 7650 c-22 -9 -73 -86 -73 -111 0 -8 24 -26 53 -42 63 -33 173
-122 210 -170 17 -23 39 -83 66 -184 128 -474 237 -715 349 -773 39 -19 122
28 217 124 125 127 207 281 299 560 66 198 66 196 11 255 -94 101 -252 191
-440 252 -209 68 -615 120 -692 89z"/>
<path d="M4122 6335 c-29 -15 -67 -46 -86 -68 -36 -46 -63 -92 -49 -86 4 2 31
16 58 30 122 64 267 63 413 -1 25 -11 48 -17 51 -14 3 3 -19 28 -49 55 -119
105 -237 135 -338 84z"/>
<path d="M6205 6332 c-55 -27 -182 -129 -171 -139 2 -3 24 4 49 15 145 64 283
67 401 8 39 -19 72 -33 74 -31 8 8 -40 74 -78 109 -82 74 -173 86 -275 38z"/>
<path d="M4208 6150 c-104 -31 -165 -138 -138 -239 33 -124 176 -182 290 -119
133 73 125 279 -13 344 -53 24 -92 28 -139 14z m151 -46 c28 -35 26 -69 -4
-99 -62 -63 -160 7 -120 85 17 32 27 38 72 39 23 1 37 -6 52 -25z"/>
<path d="M6186 6146 c-80 -30 -126 -97 -126 -186 0 -62 27 -119 72 -153 135
-102 318 -10 318 160 0 128 -142 224 -264 179z m81 -38 c61 -57 -11 -153 -92
-122 -24 10 -46 60 -39 89 13 54 88 73 131 33z"/>
<path d="M5160 5913 c-70 -9 -220 -53 -284 -82 -205 -93 -391 -268 -506 -476
-18 -33 -41 -69 -50 -80 -17 -20 -90 -231 -90 -260 0 -9 -9 -33 -20 -54 -29
-58 -47 -243 -31 -328 25 -135 110 -242 243 -306 105 -51 228 -83 228 -61 0 3
-8 18 -19 32 -10 15 -35 60 -55 100 -120 239 -91 509 69 650 95 83 197 92 418
36 127 -33 151 -36 227 -31 54 4 123 18 190 38 146 46 257 47 347 5 144 -66
208 -191 208 -406 0 -95 -4 -127 -24 -184 -23 -68 -89 -194 -120 -230 -15 -18
-14 -19 35 -13 116 13 258 82 339 163 66 67 96 140 107 254 11 121 -2 182 -86
400 -8 19 -33 85 -56 145 -22 61 -51 128 -62 150 -57 108 -222 289 -331 363
-81 56 -221 120 -322 147 -98 26 -272 40 -355 28z"/>
<path d="M5682 4847 c-45 -48 -14 -117 52 -117 44 0 86 33 86 69 0 66 -92 97
-138 48z"/>
<path d="M4731 4834 c-28 -36 -26 -50 8 -85 35 -34 68 -37 105 -8 55 43 21
119 -53 119 -31 0 -44 -6 -60 -26z"/>
<path d="M5108 4753 c7 -3 16 -2 19 1 4 3 -2 6 -13 5 -11 0 -14 -3 -6 -6z"/>
<path d="M5060 4721 c0 -5 5 -13 10 -16 6 -3 10 -2 10 4 0 5 -4 13 -10 16 -5
3 -10 2 -10 -4z"/>
<path d="M5037 4714 c-4 -4 -7 -19 -6 -33 l0 -26 10 24 c10 26 8 47 -4 35z"/>
<path d="M5410 4680 c0 -12 -7 -20 -17 -20 -10 0 -80 -1 -156 -3 -133 -4 -139
-3 -147 17 -9 21 -9 21 -9 -1 -1 -13 -5 -24 -11 -24 -5 -1 -14 -2 -19 -3 -6 0
-16 -7 -22 -13 -7 -7 -21 -13 -30 -13 -9 0 -30 -13 -47 -28 -39 -36 -61 -131
-42 -177 7 -16 12 -39 12 -49 -1 -10 6 -28 14 -40 16 -21 16 -21 9 3 -11 36
-8 142 4 154 7 7 14 7 23 0 7 -6 40 -19 73 -29 71 -22 332 -27 356 -7 8 6 37
14 64 18 28 4 61 14 73 22 13 8 26 12 29 9 3 -3 8 -39 11 -79 3 -56 0 -81 -12
-105 -25 -48 -12 -38 20 16 26 42 29 57 29 131 0 59 -4 86 -12 88 -7 3 -13 12
-13 22 0 23 -32 48 -72 56 -18 4 -45 9 -60 12 -23 4 -28 11 -28 34 0 16 -4 29
-10 29 -5 0 -10 -9 -10 -20z"/>
<path d="M4843 4648 c-33 -38 -78 -110 -104 -168 -20 -46 -24 -71 -24 -150 0
-89 2 -100 35 -165 41 -81 141 -187 215 -229 163 -92 386 -100 545 -22 78 39
97 53 171 129 74 75 117 157 125 235 7 61 -11 188 -27 198 -5 3 -9 12 -9 20 0
17 -61 114 -72 114 -3 0 4 -20 18 -44 13 -24 34 -72 45 -107 18 -55 20 -77 14
-156 -4 -51 -11 -93 -16 -93 -5 0 -9 -6 -9 -13 0 -22 -64 -113 -116 -164 -55
-54 -149 -103 -233 -123 -129 -30 -354 6 -434 70 -101 80 -189 190 -203 254
-14 59 -16 186 -4 222 18 57 61 144 88 182 28 37 25 43 -5 10z"/>
<path d="M4960 4280 c0 -5 5 -10 11 -10 5 0 7 5 4 10 -3 6 -8 10 -11 10 -2 0
-4 -4 -4 -10z"/>
<path d="M3793 3156 c-65 -55 -117 -207 -111 -326 2 -36 8 -65 13 -65 6 0 13
38 17 85 9 119 39 207 88 263 57 64 52 93 -7 43z"/>
<path d="M6630 3172 c0 -5 18 -27 39 -50 52 -54 81 -134 93 -260 10 -93 13
-102 27 -88 13 14 13 28 2 117 -14 118 -45 197 -99 252 -34 35 -62 48 -62 29z"/>
<path d="M3964 3093 c-9 -21 -14 -51 -11 -70 3 -18 1 -35 -4 -38 -10 -7 -12
-173 -2 -253 3 -32 10 -51 17 -49 7 2 12 57 13 163 1 169 7 230 24 251 12 13
4 33 -12 33 -6 0 -17 -17 -25 -37z"/>
<path d="M6475 3108 c19 -64 24 -117 25 -266 0 -126 3 -163 13 -159 19 6 17
384 -2 421 -18 33 -46 36 -36 4z"/>
<path d="M6130 2931 c0 -5 13 -20 29 -33 56 -45 89 -139 109 -308 10 -95 27
-76 25 28 -3 108 -31 201 -82 268 -33 44 -81 71 -81 45z"/>
<path d="M4298 2905 c-62 -57 -101 -161 -113 -300 -6 -67 4 -109 22 -91 4 4
11 51 14 104 9 119 36 198 90 254 21 23 39 45 39 50 0 16 -26 8 -52 -17z"/>
<path d="M5792 2867 c-52 -56 -87 -197 -75 -312 6 -62 20 -102 31 -90 4 3 5
55 3 115 -3 126 12 194 58 255 17 22 31 43 31 48 0 15 -27 6 -48 -16z"/>
<path d="M5970 2877 c0 -7 6 -19 13 -25 9 -10 12 -62 12 -190 l0 -177 -70 -9
c-38 -5 -72 -10 -74 -12 -1 -1 2 -33 8 -71 6 -37 36 -259 67 -493 30 -233 57
-427 59 -430 5 -8 274 25 282 34 5 5 -38 381 -52 449 -2 11 2 17 10 15 13 -3
269 -225 383 -333 35 -33 72 -64 82 -69 12 -5 71 -2 155 9 l137 18 -6 31 c-3
17 -31 229 -61 471 -30 242 -58 453 -61 468 -7 32 11 31 -204 3 l-85 -11 3
-60 c2 -33 14 -139 27 -235 13 -96 21 -178 17 -182 -7 -7 -93 68 -336 295
l-140 129 -52 -6 -52 -6 -4 178 c-3 179 -12 222 -43 222 -8 0 -15 -6 -15 -13z
m860 -947 c0 -5 -4 -10 -9 -10 -6 0 -13 5 -16 10 -3 6 1 10 9 10 9 0 16 -4 16
-10z"/>
<path d="M4473 2853 c-15 -23 -19 -56 -21 -220 l-4 -193 -118 0 -118 0 -20
-77 c-11 -43 -54 -213 -97 -378 -97 -378 -105 -406 -115 -400 -4 2 -10 15 -13
27 -3 13 -16 66 -30 118 -13 52 -54 210 -91 350 -36 140 -72 278 -79 305 l-13
50 -342 3 -342 2 2 -747 3 -748 215 0 215 0 0 385 c0 259 -4 422 -13 498 -8
63 -12 115 -9 118 2 2 32 -98 66 -223 81 -294 134 -486 179 -648 l37 -130 187
-3 c172 -3 187 -1 192 15 2 10 64 237 137 506 73 268 136 487 141 487 5 0 6
-10 3 -22 -11 -50 -26 -254 -32 -455 -7 -246 -20 -224 114 -198 43 8 142 20
221 27 l142 11 0 564 0 563 -66 0 c-59 0 -65 2 -59 18 51 120 13 343 -69 411
-28 23 -40 -1 -15 -30 36 -40 59 -105 69 -190 5 -45 7 -85 5 -89 -2 -4 -5 -33
-6 -64 l-2 -57 -121 3 -121 3 -3 142 c-2 129 5 210 23 271 10 31 -10 28 -32
-5z m-761 -925 c-9 -9 -15 -9 -24 0 -9 9 -7 12 12 12 19 0 21 -3 12 -12z m223
-766 c-13 -11 -87 -32 -114 -32 -36 0 -23 16 22 27 53 13 104 16 92 5z"/>
<path d="M7211 2641 c-63 -9 -116 -21 -118 -27 -2 -6 14 -153 37 -325 22 -173
50 -392 62 -488 l23 -173 70 6 c184 17 245 28 245 46 0 9 -27 231 -60 493 -33
263 -60 479 -60 482 0 9 -81 3 -199 -14z"/>
<path d="M5190 1912 l0 -529 113 -6 c205 -12 354 -9 361 8 3 8 4 248 3 532
l-2 518 -237 3 -238 2 0 -528z m350 508 c0 -5 -9 -10 -20 -10 -11 0 -20 5 -20
10 0 6 9 10 20 10 11 0 20 -4 20 -10z"/>
<path d="M6743 918 c4 -46 7 -122 7 -170 l0 -88 50 0 50 0 0 170 0 170 -56 0
-57 0 6 -82z"/>
<path d="M6932 833 l3 -168 45 0 45 0 3 73 c2 39 7 72 11 72 5 0 36 -34 71
-75 61 -72 64 -75 106 -75 l44 0 0 139 c0 76 3 153 6 170 l7 31 -57 0 -56 0 7
-75 c8 -97 -3 -97 -82 0 -59 74 -60 75 -108 75 l-47 0 2 -167z"/>
<path d="M7347 993 c-4 -3 -7 -54 -7 -112 1 -173 37 -221 170 -221 68 0 108
16 139 56 19 24 21 40 21 155 l0 129 -50 0 -50 0 0 -114 c0 -129 -7 -146 -65
-146 -48 0 -55 20 -55 149 l0 111 -48 0 c-27 0 -52 -3 -55 -7z"/>
</g>
</svg>
